<svg xmlns="http://www.w3.org/2000/svg" width="28" height="28" viewBox="0 0 28 28" fill="none">
  <defs>
    <linearGradient id="g2" x1="0" y1="0" x2="1" y2="1">
      <stop offset="0%" stop-color="#28B862"/>
      <stop offset="100%" stop-color="#17602D"/>
    </linearGradient>
  </defs>
  <circle cx="14" cy="14" r="12" fill="url(#g2)"/>
  <path d="M14 7c-2.8 1.6-4.8 5.4-4.2 8.6.6 3 3.4 4.6 4.2 5.4.8-.8 3.6-2.4 4.2-5.4.6-3.2-1.4-7-4.2-8.6Z" fill="#fff"/>
  <path d="M14 10.5c-.8 1.2-1.3 2.8-1.1 4.3.2 1.4 1 2.6 1.1 2.7.2-.1.9-1.3 1.1-2.7.2-1.5-.3-3.1-1.1-4.3Z" fill="#28B862"/>
</svg>
